<svg xmlns="http://www.w3.org/2000/svg" viewBox="0 0 200 200" width="600" height="600">
  <!-- Background -->
  <circle cx="100" cy="100" r="100" fill="#ffffff"/>

  <!-- 60 Tick Marks: 45 elapsed (white), 15 remaining (red) -->
  <line x1="100.00" y1="15.00" x2="100.00" y2="4.00" stroke="#2d2d2d" stroke-width="3" stroke-linecap="round"/>
  <line x1="108.88" y1="15.47" x2="110.03" y2="4.53" stroke="#2d2d2d" stroke-width="2" stroke-linecap="round"/>
  <line x1="117.67" y1="16.86" x2="119.96" y2="6.10" stroke="#2d2d2d" stroke-width="2" stroke-linecap="round"/>
  <line x1="126.27" y1="19.16" x2="129.67" y2="8.70" stroke="#2d2d2d" stroke-width="2" stroke-linecap="round"/>
  <line x1="134.57" y1="22.35" x2="139.05" y2="12.30" stroke="#2d2d2d" stroke-width="2" stroke-linecap="round"/>
  <line x1="142.50" y1="26.39" x2="148.00" y2="16.86" stroke="#2d2d2d" stroke-width="3" stroke-linecap="round"/>
  <line x1="149.96" y1="31.23" x2="156.43" y2="22.33" stroke="#2d2d2d" stroke-width="2" stroke-linecap="round"/>
  <line x1="156.88" y1="36.83" x2="164.24" y2="28.66" stroke="#2d2d2d" stroke-width="2" stroke-linecap="round"/>
  <line x1="163.17" y1="43.12" x2="171.34" y2="35.76" stroke="#2d2d2d" stroke-width="2" stroke-linecap="round"/>
  <line x1="168.77" y1="50.04" x2="177.67" y2="43.57" stroke="#2d2d2d" stroke-width="2" stroke-linecap="round"/>
  <line x1="173.61" y1="57.50" x2="183.14" y2="52.00" stroke="#2d2d2d" stroke-width="3" stroke-linecap="round"/>
  <line x1="177.65" y1="65.43" x2="187.70" y2="60.95" stroke="#2d2d2d" stroke-width="2" stroke-linecap="round"/>
  <line x1="180.84" y1="73.73" x2="191.30" y2="70.33" stroke="#2d2d2d" stroke-width="2" stroke-linecap="round"/>
  <line x1="183.14" y1="82.33" x2="193.90" y2="80.04" stroke="#2d2d2d" stroke-width="2" stroke-linecap="round"/>
  <line x1="184.53" y1="91.12" x2="195.47" y2="89.97" stroke="#2d2d2d" stroke-width="2" stroke-linecap="round"/>
  <line x1="185.00" y1="100.00" x2="196.00" y2="100.00" stroke="#2d2d2d" stroke-width="3" stroke-linecap="round"/>
  <line x1="184.53" y1="108.88" x2="195.47" y2="110.03" stroke="#2d2d2d" stroke-width="2" stroke-linecap="round"/>
  <line x1="183.14" y1="117.67" x2="193.90" y2="119.96" stroke="#2d2d2d" stroke-width="2" stroke-linecap="round"/>
  <line x1="180.84" y1="126.27" x2="191.30" y2="129.67" stroke="#2d2d2d" stroke-width="2" stroke-linecap="round"/>
  <line x1="177.65" y1="134.57" x2="187.70" y2="139.05" stroke="#2d2d2d" stroke-width="2" stroke-linecap="round"/>
  <line x1="173.61" y1="142.50" x2="183.14" y2="148.00" stroke="#2d2d2d" stroke-width="3" stroke-linecap="round"/>
  <line x1="168.77" y1="149.96" x2="177.67" y2="156.43" stroke="#2d2d2d" stroke-width="2" stroke-linecap="round"/>
  <line x1="163.17" y1="156.88" x2="171.34" y2="164.24" stroke="#2d2d2d" stroke-width="2" stroke-linecap="round"/>
  <line x1="156.88" y1="163.17" x2="164.24" y2="171.34" stroke="#2d2d2d" stroke-width="2" stroke-linecap="round"/>
  <line x1="149.96" y1="168.77" x2="156.43" y2="177.67" stroke="#2d2d2d" stroke-width="2" stroke-linecap="round"/>
  <line x1="142.50" y1="173.61" x2="148.00" y2="183.14" stroke="#2d2d2d" stroke-width="3" stroke-linecap="round"/>
  <line x1="134.57" y1="177.65" x2="139.05" y2="187.70" stroke="#2d2d2d" stroke-width="2" stroke-linecap="round"/>
  <line x1="126.27" y1="180.84" x2="129.67" y2="191.30" stroke="#2d2d2d" stroke-width="2" stroke-linecap="round"/>
  <line x1="117.67" y1="183.14" x2="119.96" y2="193.90" stroke="#2d2d2d" stroke-width="2" stroke-linecap="round"/>
  <line x1="108.88" y1="184.53" x2="110.03" y2="195.47" stroke="#2d2d2d" stroke-width="2" stroke-linecap="round"/>
  <line x1="100.00" y1="185.00" x2="100.00" y2="196.00" stroke="#2d2d2d" stroke-width="3" stroke-linecap="round"/>
  <line x1="91.12" y1="184.53" x2="89.97" y2="195.47" stroke="#2d2d2d" stroke-width="2" stroke-linecap="round"/>
  <line x1="82.33" y1="183.14" x2="80.04" y2="193.90" stroke="#2d2d2d" stroke-width="2" stroke-linecap="round"/>
  <line x1="73.73" y1="180.84" x2="70.33" y2="191.30" stroke="#2d2d2d" stroke-width="2" stroke-linecap="round"/>
  <line x1="65.43" y1="177.65" x2="60.95" y2="187.70" stroke="#2d2d2d" stroke-width="2" stroke-linecap="round"/>
  <line x1="57.50" y1="173.61" x2="52.00" y2="183.14" stroke="#2d2d2d" stroke-width="3" stroke-linecap="round"/>
  <line x1="50.04" y1="168.77" x2="43.57" y2="177.67" stroke="#2d2d2d" stroke-width="2" stroke-linecap="round"/>
  <line x1="43.12" y1="163.17" x2="35.76" y2="171.34" stroke="#2d2d2d" stroke-width="2" stroke-linecap="round"/>
  <line x1="36.83" y1="156.88" x2="28.66" y2="164.24" stroke="#2d2d2d" stroke-width="2" stroke-linecap="round"/>
  <line x1="31.23" y1="149.96" x2="22.33" y2="156.43" stroke="#2d2d2d" stroke-width="2" stroke-linecap="round"/>
  <line x1="26.39" y1="142.50" x2="16.86" y2="148.00" stroke="#2d2d2d" stroke-width="3" stroke-linecap="round"/>
  <line x1="22.35" y1="134.57" x2="12.30" y2="139.05" stroke="#2d2d2d" stroke-width="2" stroke-linecap="round"/>
  <line x1="19.16" y1="126.27" x2="8.70" y2="129.67" stroke="#2d2d2d" stroke-width="2" stroke-linecap="round"/>
  <line x1="16.86" y1="117.67" x2="6.10" y2="119.96" stroke="#2d2d2d" stroke-width="2" stroke-linecap="round"/>
  <line x1="15.47" y1="108.88" x2="4.53" y2="110.03" stroke="#2d2d2d" stroke-width="2" stroke-linecap="round"/>
  <line x1="15.00" y1="100.00" x2="4.00" y2="100.00" stroke="#d32f2f" stroke-width="3" stroke-linecap="round"/>
  <line x1="15.47" y1="91.12" x2="4.53" y2="89.97" stroke="#d32f2f" stroke-width="2" stroke-linecap="round"/>
  <line x1="16.86" y1="82.33" x2="6.10" y2="80.04" stroke="#d32f2f" stroke-width="2" stroke-linecap="round"/>
  <line x1="19.16" y1="73.73" x2="8.70" y2="70.33" stroke="#d32f2f" stroke-width="2" stroke-linecap="round"/>
  <line x1="22.35" y1="65.43" x2="12.30" y2="60.95" stroke="#d32f2f" stroke-width="2" stroke-linecap="round"/>
  <line x1="26.39" y1="57.50" x2="16.86" y2="52.00" stroke="#d32f2f" stroke-width="3" stroke-linecap="round"/>
  <line x1="31.23" y1="50.04" x2="22.33" y2="43.57" stroke="#d32f2f" stroke-width="2" stroke-linecap="round"/>
  <line x1="36.83" y1="43.12" x2="28.66" y2="35.76" stroke="#d32f2f" stroke-width="2" stroke-linecap="round"/>
  <line x1="43.12" y1="36.83" x2="35.76" y2="28.66" stroke="#d32f2f" stroke-width="2" stroke-linecap="round"/>
  <line x1="50.04" y1="31.23" x2="43.57" y2="22.33" stroke="#d32f2f" stroke-width="2" stroke-linecap="round"/>
  <line x1="57.50" y1="26.39" x2="52.00" y2="16.86" stroke="#d32f2f" stroke-width="3" stroke-linecap="round"/>
  <line x1="65.43" y1="22.35" x2="60.95" y2="12.30" stroke="#d32f2f" stroke-width="2" stroke-linecap="round"/>
  <line x1="73.73" y1="19.16" x2="70.33" y2="8.70" stroke="#d32f2f" stroke-width="2" stroke-linecap="round"/>
  <line x1="82.33" y1="16.86" x2="80.04" y2="6.10" stroke="#d32f2f" stroke-width="2" stroke-linecap="round"/>
  <line x1="91.12" y1="15.47" x2="89.97" y2="4.53" stroke="#d32f2f" stroke-width="2" stroke-linecap="round"/>

  <!-- Center logo circle -->
  <circle cx="100" cy="47" r="26" fill="#ffffff" stroke="#d32f2f" stroke-width="1.5"/>
  <text x="100" y="51" text-anchor="middle" fill="#2d2d2d" font-family="Arial, Helvetica, sans-serif" font-weight="bold" font-size="13">MCF</text>

  <!-- Countdown display -->
  <text x="100" y="102" text-anchor="middle" fill="#2d2d2d" font-family="'Courier New', Courier, monospace" font-weight="bold" font-size="18" letter-spacing="1.5">02:15:34</text>

  <!-- Label -->
  <text x="100" y="116" text-anchor="middle" fill="#666666" font-family="Arial, Helvetica, sans-serif" font-size="7.5">until next session</text>

  <!-- Session info -->
  <text x="100" y="140" text-anchor="middle" fill="#555555" font-family="Arial, Helvetica, sans-serif" font-size="8.5">Thursday 13th Feb at 6:00 PM</text>
</svg>